<svg width="30" height="22" viewBox="0 0 30 22" fill="none" xmlns="http://www.w3.org/2000/svg">
<path d="M29.3864 5.00005H0.586365V7.40005H29.3864V5.00005Z" fill="#F26C6D"/>
<path d="M26.9864 0.800049H2.98636C1.66035 0.800049 0.586365 1.87404 0.586365 3.20005V3.80005H29.3864V3.20005C29.3864 1.87404 28.3124 0.800049 26.9864 0.800049Z" fill="#F26C6D"/>
<path d="M0.586365 18.8C0.586365 20.126 1.66035 21.2 2.98636 21.2H26.9864C28.3124 21.2 29.3864 20.126 29.3864 18.8V8.60004H0.586365V18.8ZM21.5864 12.2C22.9097 12.2 23.9864 13.2767 23.9864 14.6C23.9864 15.9234 22.9097 17 21.5864 17C20.263 17 19.1864 15.9234 19.1864 14.6C19.1864 13.2767 20.263 12.2 21.5864 12.2ZM3.58636 14H8.38636C8.71771 14 8.98637 14.2687 8.98637 14.6C8.98637 14.9314 8.71771 15.2 8.38636 15.2H3.58636C3.25502 15.2 2.98636 14.9314 2.98636 14.6C2.98636 14.2687 3.25502 14 3.58636 14ZM3.58636 16.4H10.7864C11.1177 16.4 11.3864 16.6687 11.3864 17C11.3864 17.3314 11.1177 17.6 10.7864 17.6H3.58636C3.25502 17.6 2.98636 17.3314 2.98636 17C2.98636 16.6687 3.25502 16.4 3.58636 16.4Z" fill="#544AC3"/>
<path d="M21.5864 15.8001C22.2491 15.8001 22.7864 15.2628 22.7864 14.6001C22.7864 13.9373 22.2491 13.4001 21.5864 13.4001C20.9236 13.4001 20.3864 13.9373 20.3864 14.6001C20.3864 15.2628 20.9236 15.8001 21.5864 15.8001Z" fill="#F26C6D"/>
</svg>
