<svg width="30" height="30" viewBox="0 0 30 30" fill="none" xmlns="http://www.w3.org/2000/svg">
<path d="M22.2001 12.9C25.5061 12.9 28.2001 10.206 28.2001 6.90002C28.2001 3.59402 25.5061 0.900024 22.2001 0.900024C18.8941 0.900024 16.2001 3.59402 16.2001 6.90002C16.2001 10.206 18.8941 12.9 22.2001 12.9ZM22.2001 7.50002C21.2075 7.50002 20.4001 6.6926 20.4001 5.70002C20.4001 4.91886 20.9032 4.25906 21.6001 4.01058V3.5344C21.6001 3.20305 21.8685 2.9344 22.2001 2.9344C22.5317 2.9344 22.8001 3.20305 22.8001 3.5344V4.01058C23.497 4.25906 24.0001 4.91886 24.0001 5.70002C24.0001 6.03137 23.7317 6.30002 23.4001 6.30002C23.0685 6.30002 22.8001 6.03137 22.8001 5.70002C22.8001 5.36926 22.5312 5.10002 22.2001 5.10002C21.8691 5.10002 21.6001 5.36926 21.6001 5.70002C21.6001 6.03079 21.8691 6.30002 22.2001 6.30002C23.1927 6.30002 24.0001 7.10745 24.0001 8.10002C24.0001 8.88119 23.497 9.54099 22.8001 9.78946V10.1906C22.8001 10.522 22.5317 10.7906 22.2001 10.7906C21.8685 10.7906 21.6001 10.522 21.6001 10.1906V9.78943C20.9032 9.54095 20.4001 8.88119 20.4001 8.10002C20.4001 7.76868 20.6685 7.50002 21.0001 7.50002C21.3317 7.50002 21.6001 7.76868 21.6001 8.10002C21.6001 8.43079 21.8691 8.70002 22.2001 8.70002C22.5312 8.70002 22.8001 8.43079 22.8001 8.10002C22.8001 7.76926 22.5312 7.50002 22.2001 7.50002Z" fill="#F26C6D"/>
<path d="M22.1521 29.1C23.809 29.1 25.1521 27.7569 25.1521 26.1C25.1521 24.4432 23.809 23.1 22.1521 23.1C20.4952 23.1 19.1521 24.4432 19.1521 26.1C19.1521 27.7569 20.4952 29.1 22.1521 29.1Z" fill="#F26C6D"/>
<path d="M7.75208 29.1C9.40893 29.1 10.7521 27.7569 10.7521 26.1C10.7521 24.4432 9.40893 23.1 7.75208 23.1C6.09522 23.1 4.75208 24.4432 4.75208 26.1C4.75208 27.7569 6.09522 29.1 7.75208 29.1Z" fill="#F26C6D"/>
<path d="M25.5541 20.1H22.5541L21.1021 16.548C20.4961 15.06 19.0981 14.1 17.5381 14.1H8.76609C7.21211 14.1 5.8141 15.06 5.20209 16.548L3.7501 20.1H1.2001C0.870105 20.1 0.600098 20.37 0.600098 20.7V26.1C0.600098 26.43 0.870105 26.7 1.2001 26.7H3.6001C3.5641 26.502 3.55209 26.304 3.55209 26.1C3.55209 23.784 5.4361 21.9 7.75209 21.9C10.0681 21.9 11.9521 23.784 11.9521 26.1C11.9521 26.304 11.9401 26.502 11.9041 26.7H18.0001C17.9641 26.502 17.9521 26.304 17.9521 26.1C17.9521 23.784 19.8361 21.9 22.1521 21.9C24.4681 21.9 26.3521 23.784 26.3521 26.1C26.3521 26.304 26.3401 26.502 26.3041 26.7H28.8001C29.1301 26.7 29.4001 26.43 29.4001 26.1V24.3C29.4001 21.984 27.6721 20.1 25.5541 20.1ZM12.5521 20.1H5.04608L6.31211 17.004C6.73808 15.972 7.69811 15.3 8.76609 15.3H12.5521V20.1ZM13.7521 20.1V15.3H17.5381C18.6061 15.3 19.5721 15.972 19.9921 17.004L21.2581 20.1H13.7521Z" fill="#544AC3"/>
</svg>
