<svg width="20" height="17" viewBox="0 0 20 17" fill="none" xmlns="http://www.w3.org/2000/svg">
<path d="M10.8907 1.04033C10.8907 0.592955 10.5281 0.230286 10.0807 0.230286C9.63332 0.230286 9.27065 0.592955 9.27065 1.04033V10.4259L5.79311 6.94835C5.47677 6.63201 4.96388 6.63201 4.64754 6.94835C4.33119 7.26469 4.33119 7.77758 4.64753 8.09393L8.74413 12.1905C9.48227 12.9287 10.679 12.9287 11.4171 12.1905L15.5116 8.09604C15.828 7.77969 15.828 7.2668 15.5116 6.95046C15.1953 6.63412 14.6824 6.63412 14.3661 6.95046L10.8907 10.4258V1.04033Z" fill="#544AC3"/>
<path fill-rule="evenodd" clip-rule="evenodd" d="M1.43798 11.0314C1.88535 11.0314 2.24802 11.394 2.24802 11.8414V14.0015C2.24802 14.7472 2.85247 15.3516 3.5981 15.3516H16.5588C17.3044 15.3516 17.9089 14.7472 17.9089 14.0015V11.8414C17.9089 11.394 18.2716 11.0314 18.7189 11.0314C19.1663 11.0314 19.529 11.394 19.529 11.8414V14.0015C19.529 15.6419 18.1992 16.9717 16.5588 16.9717H3.5981C1.95772 16.9717 0.62793 15.6419 0.62793 14.0015V11.8414C0.62793 11.394 0.990599 11.0314 1.43798 11.0314Z" fill="#F26C6D"/>
</svg>
