<svg width="30" height="30" viewBox="0 0 30 30" fill="none" xmlns="http://www.w3.org/2000/svg">
<path d="M14.6621 7.79973C10.3601 7.79973 6.86212 11.2977 6.86212 15.5997C6.86212 19.9017 10.3601 23.3997 14.6621 23.3997C18.9641 23.3997 22.4621 19.9017 22.4621 15.5997C22.4621 11.2977 18.9641 7.79973 14.6621 7.79973ZM14.6621 14.9997C15.9855 14.9997 17.0621 16.0764 17.0621 17.3997C17.0621 18.5147 16.2943 19.4461 15.2621 19.7145V20.3997C15.2621 20.7311 14.9935 20.9997 14.6621 20.9997C14.3308 20.9997 14.0621 20.7311 14.0621 20.3997V19.7145C13.03 19.4461 12.2621 18.5147 12.2621 17.3997C12.2621 17.0684 12.5308 16.7997 12.8621 16.7997C13.1935 16.7997 13.4621 17.0684 13.4621 17.3997C13.4621 18.0615 14.0003 18.5997 14.6621 18.5997C15.3239 18.5997 15.8621 18.0615 15.8621 17.3997C15.8621 16.7379 15.3239 16.1997 14.6621 16.1997C13.3388 16.1997 12.2621 15.1231 12.2621 13.7997C12.2621 12.6848 13.03 11.7533 14.0621 11.4849V10.7997C14.0621 10.4684 14.3308 10.1997 14.6621 10.1997C14.9935 10.1997 15.2621 10.4684 15.2621 10.7997V11.4849C16.2943 11.7533 17.0621 12.6848 17.0621 13.7997C17.0621 14.1311 16.7935 14.3997 16.4621 14.3997C16.1308 14.3997 15.8621 14.1311 15.8621 13.7997C15.8621 13.1379 15.3239 12.5997 14.6621 12.5997C14.0003 12.5997 13.4621 13.1379 13.4621 13.7997C13.4621 14.4615 14.0003 14.9997 14.6621 14.9997Z" fill="#F26C6D"/>
<path d="M28.7802 3.68971L23.9802 0.689714C23.7941 0.575713 23.5602 0.569743 23.3742 0.677739C23.1822 0.779729 23.0621 0.983745 23.0621 1.19974V2.39974H18.8621C18.5322 2.39974 18.2621 2.66974 18.2621 2.99974V5.39974C18.2621 5.72973 18.5322 5.99974 18.8621 5.99974H23.0621V7.19974C23.0621 7.41573 23.1822 7.61974 23.3742 7.72173C23.4641 7.77571 23.5602 7.79974 23.6621 7.79974C23.7701 7.79974 23.8841 7.76974 23.9802 7.70972L28.7802 4.70972C28.9542 4.60173 29.0621 4.40372 29.0621 4.19974C29.0621 3.99572 28.9542 3.79771 28.7802 3.68971Z" fill="#544AC3"/>
<path d="M5.95013 22.2777C5.76414 22.1697 5.53016 22.1757 5.34413 22.2897L0.544128 25.2897C0.370142 25.3977 0.262146 25.5957 0.262146 25.7997C0.262146 26.0037 0.370142 26.2017 0.544128 26.3097L5.34413 29.3097C5.44015 29.3697 5.55415 29.3997 5.66215 29.3997C5.76414 29.3997 5.86016 29.3757 5.95013 29.3217C6.14214 29.2197 6.26215 29.0157 6.26215 28.7997V27.5997H10.4621C10.7921 27.5997 11.0621 27.3297 11.0621 26.9997V24.5997C11.0621 24.2697 10.7921 23.9997 10.4621 23.9997H6.26215V22.7997C6.26215 22.5838 6.14214 22.3797 5.95013 22.2777Z" fill="#544AC3"/>
</svg>
