<svg width="30" height="30" viewBox="0 0 30 30" fill="none" xmlns="http://www.w3.org/2000/svg">
<path d="M29.1238 14.556H5.72385C5.45985 14.556 5.22584 14.73 5.14784 14.982L0.947839 28.626C0.893859 28.806 0.929858 29.004 1.04386 29.154C1.15185 29.31 1.33185 29.4 1.52385 29.4H25.5238C25.7939 29.4 26.0338 29.214 26.1058 28.95L29.7058 15.312C29.7538 15.132 29.7118 14.94 29.5978 14.79C29.4838 14.646 29.3098 14.556 29.1238 14.556Z" fill="#544AC3"/>
<path d="M5.72383 13.356H6.92383V8.99997H1.52383C1.19384 8.99997 0.923828 9.26998 0.923828 9.59997V24.624L4.00183 14.628C4.23584 13.866 4.92582 13.356 5.72383 13.356Z" fill="#544AC3"/>
<path d="M25.5239 11.526H23.7239V13.356H26.1239V12.126C26.1239 11.796 25.8539 11.526 25.5239 11.526Z" fill="#544AC3"/>
<path d="M8.12384 1.19998V13.356H22.5238V1.19998C22.5238 0.869983 22.2538 0.599976 21.9238 0.599976H8.72384C8.39385 0.599976 8.12384 0.869983 8.12384 1.19998ZM11.7238 2.39998H18.9238C19.2538 2.39998 19.5238 2.66998 19.5238 2.99998C19.5238 3.32997 19.2538 3.59998 18.9238 3.59998H11.7238C11.3938 3.59998 11.1238 3.32997 11.1238 2.99998C11.1238 2.66998 11.3938 2.39998 11.7238 2.39998ZM11.7238 5.00996H18.9238C19.2538 5.00996 19.5238 5.27396 19.5238 5.60996C19.5238 5.93995 19.2538 6.20996 18.9238 6.20996H11.7238C11.3938 6.20996 11.1238 5.93995 11.1238 5.60996C11.1238 5.27396 11.3938 5.00996 11.7238 5.00996ZM11.7238 7.61398H18.9238C19.2538 7.61398 19.5238 7.88398 19.5238 8.21398C19.5238 8.54997 19.2538 8.81398 18.9238 8.81398H11.7238C11.3938 8.81398 11.1238 8.54997 11.1238 8.21398C11.1238 7.88398 11.3938 7.61398 11.7238 7.61398ZM11.7238 10.224H18.9238C19.2538 10.224 19.5238 10.494 19.5238 10.824C19.5238 11.154 19.2538 11.424 18.9238 11.424H11.7238C11.3938 11.424 11.1238 11.154 11.1238 10.824C11.1238 10.494 11.3938 10.224 11.7238 10.224Z" fill="#F26C6D"/>
</svg>
