<svg width="17" height="18" viewBox="0 0 17 18" fill="none" xmlns="http://www.w3.org/2000/svg">
<path d="M9.3721 1.17668C9.3721 0.729308 9.00943 0.366638 8.56206 0.366638C8.11468 0.366638 7.75201 0.729308 7.75201 1.17668V7.92706H1.00163C0.554259 7.92706 0.191589 8.28973 0.191589 8.73711C0.191589 9.18448 0.554259 9.54715 1.00163 9.54715H7.75201V16.2975C7.75201 16.7449 8.11468 17.1076 8.56206 17.1076C9.00943 17.1076 9.3721 16.7449 9.3721 16.2975V9.54715H16.1225C16.5699 9.54715 16.9325 9.18448 16.9325 8.73711C16.9325 8.28973 16.5699 7.92706 16.1225 7.92706H9.3721V1.17668Z" fill="#544AC3"/>
</svg>
