<svg width="30" height="30" viewBox="0 0 30 30" fill="none" xmlns="http://www.w3.org/2000/svg">
<path d="M6.84853 13.83C10.4905 13.83 13.4485 10.872 13.4485 7.23C13.4485 3.588 10.4905 0.630005 6.84853 0.630005C3.20653 0.630005 0.248535 3.588 0.248535 7.23C0.248535 10.872 3.20653 13.83 6.84853 13.83ZM6.84853 7.83C5.85596 7.83 5.04853 7.02258 5.04853 6.03C5.04853 5.24884 5.55163 4.58904 6.24853 4.34056V3.5301C6.24853 3.19875 6.51719 2.9301 6.84853 2.9301C7.17988 2.9301 7.44853 3.19875 7.44853 3.5301V4.34056C8.14543 4.58904 8.64853 5.24884 8.64853 6.03C8.64853 6.36135 8.37988 6.63 8.04853 6.63C7.71719 6.63 7.44853 6.36135 7.44853 6.03C7.44853 5.69924 7.1793 5.43 6.84853 5.43C6.51777 5.43 6.24853 5.69924 6.24853 6.03C6.24853 6.36077 6.51777 6.63 6.84853 6.63C7.84111 6.63 8.64853 7.43743 8.64853 8.43C8.64853 9.21117 8.14543 9.87097 7.44853 10.1194V10.83C7.44853 11.1614 7.17988 11.43 6.84853 11.43C6.51719 11.43 6.24853 11.1614 6.24853 10.83V10.1194C5.55163 9.87093 5.04853 9.21117 5.04853 8.43C5.04853 8.09866 5.31719 7.83 5.64853 7.83C5.97988 7.83 6.24853 8.09866 6.24853 8.43C6.24853 8.76077 6.51777 9.03 6.84853 9.03C7.1793 9.03 7.44853 8.76077 7.44853 8.43C7.44853 8.09924 7.1793 7.83 6.84853 7.83Z" fill="#F26C6D"/>
<path d="M20.0486 12.63C15.5786 12.63 11.0486 13.8 11.0486 16.032C11.0486 18.264 15.5786 19.428 20.0486 19.428C24.5186 19.428 29.0486 18.264 29.0486 16.032C29.0486 13.8 24.5186 12.63 20.0486 12.63Z" fill="#544AC3"/>
<path d="M11.0486 18.426V18.828C11.0486 21.06 15.5786 22.23 20.0486 22.23C24.5186 22.23 29.0486 21.06 29.0486 18.828V18.426C27.1706 20.01 23.4086 20.628 20.0486 20.628C16.6886 20.628 12.9266 20.01 11.0486 18.426Z" fill="#544AC3"/>
<path d="M9.84854 18.828V16.344C6.29054 16.686 3.24854 17.802 3.24854 19.632C3.24854 21.864 7.77853 23.028 12.2485 23.028C13.1245 23.028 14.0125 22.98 14.8585 22.896C12.0505 22.248 9.84854 20.976 9.84854 18.828Z" fill="#544AC3"/>
<path d="M3.24854 22.026V22.428C3.24854 24.66 7.77853 25.83 12.2485 25.83C15.9985 25.83 19.7965 25.008 20.9185 23.418C20.6305 23.424 20.3365 23.43 20.0485 23.43C19.5565 23.43 19.0525 23.418 18.5485 23.388C16.6765 23.982 14.3785 24.228 12.2485 24.228C8.88855 24.228 5.12654 23.61 3.24854 22.026Z" fill="#544AC3"/>
<path d="M6.91453 26.46C4.17252 25.806 2.04854 24.54 2.04854 22.428V21.048C0.93855 21.588 0.248535 22.302 0.248535 23.172C0.248535 25.014 3.32654 26.124 6.91453 26.46Z" fill="#544AC3"/>
<path d="M9.24853 29.37C13.5025 29.37 17.8045 28.314 18.2125 26.286C17.5525 26.478 16.8385 26.628 16.1185 26.736C16.1125 26.742 16.1125 26.742 16.1065 26.736C14.1445 27.468 11.6005 27.768 9.24853 27.768C5.88855 27.768 2.12654 27.15 0.248535 25.566V25.968C0.248535 28.2 4.77853 29.37 9.24853 29.37Z" fill="#F26C6D"/>
</svg>
