<svg width="21" height="85" viewBox="0 0 21 85" fill="none" xmlns="http://www.w3.org/2000/svg">
<path id="Union" fill-rule="evenodd" clip-rule="evenodd" d="M10.4015 3.46715C10.4015 1.5523 8.84916 0 6.93431 0V0C5.01945 0 3.46715 1.5523 3.46715 3.46715V23.9479C3.46715 29.5153 0 34.8827 0 40.4501V40.4501V40.4501C0 46.0175 3.46715 51.3849 3.46715 56.9524V80.9002C3.46715 82.8151 5.01945 84.3674 6.93431 84.3674V84.3674C8.84916 84.3674 10.4015 82.8151 10.4015 80.9002V67.1908C10.4015 58.1669 20.8029 49.474 20.8029 40.4501V40.4501C20.8029 40.0056 20.775 39.5677 20.7209 39.1379C19.6846 30.9052 10.4015 23.322 10.4015 15.0243V3.46715Z" fill="#F26C6D"/>
</svg>
