<svg width="20" height="12" viewBox="0 0 20 12" fill="none" xmlns="http://www.w3.org/2000/svg">
<g id="down-arrow-icon">
<path id="Union" d="M14 11.75C13.5858 11.75 13.25 11.4142 13.25 11C13.25 10.5858 13.5858 10.25 14 10.25H17.1893L11.1768 4.23744C11.0791 4.13981 10.9209 4.13981 10.8232 4.23744L8.23744 6.82322C7.55402 7.50664 6.44598 7.50664 5.76256 6.82322L0.46967 1.53033C0.176777 1.23744 0.176777 0.762563 0.46967 0.46967C0.762563 0.176777 1.23744 0.176777 1.53033 0.46967L6.82322 5.76256C6.92086 5.86019 7.07915 5.86019 7.17678 5.76256L9.76256 3.17678C10.446 2.49336 11.554 2.49336 12.2374 3.17678L18.25 9.18934V6C18.25 5.58579 18.5858 5.25 19 5.25C19.4142 5.25 19.75 5.58579 19.75 6V11C19.75 11.4142 19.4142 11.75 19 11.75H14Z" fill="white"/>
</g>
</svg>
