<svg width="20" height="20" viewBox="0 0 20 20" fill="none" xmlns="http://www.w3.org/2000/svg">
<g id="pie-chart-icon">
<path id="Ellipse 207 (Stroke)" fill-rule="evenodd" clip-rule="evenodd" d="M7.75 4.79179C6.68033 4.91138 5.65088 5.28557 4.7499 5.88758C3.63987 6.62928 2.77471 7.68349 2.26382 8.91689C1.75293 10.1503 1.61925 11.5075 1.8797 12.8169C2.14015 14.1262 2.78303 15.329 3.72703 16.273C4.67104 17.217 5.87377 17.8598 7.18314 18.1203C8.49252 18.3808 9.84972 18.2471 11.0831 17.7362C12.3165 17.2253 13.3707 16.3601 14.1124 15.2501C14.7144 14.3491 15.0886 13.3197 15.2082 12.25H8.5C8.30109 12.25 8.11033 12.171 7.96967 12.0303C7.82902 11.8897 7.75 11.6989 7.75 11.5V4.79179ZM3.91655 4.64038C5.27325 3.73385 6.86831 3.25 8.5 3.25C8.91422 3.25 9.25 3.58579 9.25 4V10.75H16C16.4142 10.75 16.75 11.0858 16.75 11.5C16.75 13.1317 16.2661 14.7267 15.3596 16.0835C14.4531 17.4402 13.1646 18.4976 11.6571 19.122C10.1497 19.7464 8.49085 19.9098 6.89051 19.5915C5.29017 19.2732 3.82016 18.4874 2.66637 17.3336C1.51259 16.1798 0.726853 14.7098 0.408525 13.1095C0.0901971 11.5092 0.253575 9.85035 0.877998 8.34286C1.50242 6.83537 2.55984 5.5469 3.91655 4.64038Z" fill="#544AC3"/>
<path id="Ellipse 208 (Stroke)" fill-rule="evenodd" clip-rule="evenodd" d="M10.75 1C10.75 0.585786 11.0858 0.25 11.5 0.25C13.688 0.25 15.7865 1.11919 17.3336 2.66637C18.8808 4.21354 19.75 6.31196 19.75 8.5C19.75 8.91421 19.4142 9.25 19 9.25L11.5 9.25C11.3011 9.25 11.1103 9.17098 10.9697 9.03033C10.829 8.88968 10.75 8.69891 10.75 8.5V1ZM12.25 1.79177V7.75L18.2082 7.75C18.039 6.23573 17.3608 4.81485 16.273 3.72703C15.1851 2.63921 13.7643 1.96103 12.25 1.79177Z" fill="#F26C6D"/>
</g>
</svg>
