<svg width="20" height="12" viewBox="0 0 20 12" fill="none" xmlns="http://www.w3.org/2000/svg">
<path id="Up arrow" d="M14 0.25C13.5858 0.25 13.25 0.585786 13.25 1C13.25 1.41421 13.5858 1.75 14 1.75H17.1893L11.1768 7.76256C11.0791 7.86019 10.9209 7.86019 10.8232 7.76256L8.23744 5.17678C7.55402 4.49336 6.44598 4.49336 5.76256 5.17678L0.46967 10.4697C0.176777 10.7626 0.176777 11.2374 0.46967 11.5303C0.762563 11.8232 1.23744 11.8232 1.53033 11.5303L6.82322 6.23744C6.92086 6.13981 7.07915 6.13981 7.17678 6.23744L9.76256 8.82322C10.446 9.50664 11.554 9.50664 12.2374 8.82322L18.25 2.81066V6C18.25 6.41421 18.5858 6.75 19 6.75C19.4142 6.75 19.75 6.41421 19.75 6V1C19.75 0.585786 19.4142 0.25 19 0.25H14Z" fill="white"/>
</svg>
