<svg width="66" height="22" viewBox="0 0 66 22" fill="none" xmlns="http://www.w3.org/2000/svg">
<g id="visa-logo">
<path id="Shape" fill-rule="evenodd" clip-rule="evenodd" d="M27.1096 0.851074L23.8323 21.5294H29.0707L32.346 0.851074H27.1096ZM42.9113 9.27426C41.0807 8.35769 39.9585 7.73908 39.9585 6.80163C39.9809 5.94929 40.9075 5.07606 42.9766 5.07606C44.6785 5.03272 45.9294 5.43824 46.8784 5.84172L47.3538 6.05685L48.066 1.73043C47.0313 1.32491 45.3907 0.878082 43.3643 0.878082C38.1912 0.878082 34.5487 3.6051 34.526 7.50534C34.4833 10.3835 37.1339 11.9806 39.1176 12.9387C41.144 13.9216 41.8338 14.5588 41.8338 15.432C41.8115 16.7727 40.1953 17.3913 38.6872 17.3913C36.5977 17.3913 35.4752 17.0727 33.7713 16.3257L33.0815 16.007L32.349 20.5032C33.5795 21.0578 35.8425 21.5459 38.1915 21.5709C43.689 21.5709 47.2663 18.8852 47.3113 14.7285C47.3292 12.4483 45.9314 10.7019 42.9113 9.27426ZM57.4422 0.915039H61.4951L65.7191 21.5459H60.8704L60.0848 17.4265H53.9342L52.4201 21.5294H46.9225L54.7036 2.57866C55.2444 1.27926 56.1934 0.915039 57.4422 0.915039ZM55.4597 13.2859C55.5715 13.2755 57.5694 6.58829 57.5694 6.58829L59.1652 13.2859H55.4597ZM14.3233 14.9001L19.4556 0.851135V0.853405H24.9982L16.762 21.5088H11.2194L6.51978 3.73337C9.84007 5.45895 12.8152 8.93279 13.7642 12.1296L14.3233 14.9001Z" fill="white"/>
<path id="Shape_2" d="M12.1591 3.60911C11.7612 1.97605 10.4923 0.874655 8.76885 0.851151H0.682641L0.599365 1.24743C6.90717 2.88895 12.2016 7.93996 13.9193 12.6911L12.1591 3.60911Z" fill="white"/>
</g>
</svg>
