<svg width="25" height="24" viewBox="0 0 25 24" xmlns="http://www.w3.org/2000/svg">
<g id="calendar-icon" opacity="0.4">
<path id="Union" fill-rule="evenodd" clip-rule="evenodd" d="M7.16797 2.25C7.58218 2.25 7.91797 2.58579 7.91797 3V4H16.418V3C16.418 2.58579 16.7538 2.25 17.168 2.25C17.5822 2.25 17.918 2.58579 17.918 3V4H19.168C20.8248 4 22.168 5.34315 22.168 7V19C22.168 20.6569 20.8248 22 19.168 22H5.16797C3.51111 22 2.16797 20.6569 2.16797 19V7C2.16797 5.34315 3.51111 4 5.16797 4H6.41797V3C6.41797 2.58579 6.75376 2.25 7.16797 2.25ZM16.418 5.5V7C16.418 7.41421 16.7538 7.75 17.168 7.75C17.5822 7.75 17.918 7.41421 17.918 7V5.5H19.168C19.9964 5.5 20.668 6.17157 20.668 7V10.25H3.66797V7C3.66797 6.17157 4.33954 5.5 5.16797 5.5H6.41797V7C6.41797 7.41421 6.75376 7.75 7.16797 7.75C7.58218 7.75 7.91797 7.41421 7.91797 7V5.5H16.418ZM3.66797 11.75V19C3.66797 19.8284 4.33954 20.5 5.16797 20.5H19.168C19.9964 20.5 20.668 19.8284 20.668 19V11.75H3.66797Z" fill="black"/>
</g>
</svg>
