<svg width="25" height="24" viewBox="0 0 25 24" fill="none" xmlns="http://www.w3.org/2000/svg">
<g id="card-icon" opacity="0.4">
<path d="M6.16797 14.25C5.75376 14.25 5.41797 14.5858 5.41797 15C5.41797 15.4142 5.75376 15.75 6.16797 15.75H12.168C12.5822 15.75 12.918 15.4142 12.918 15C12.918 14.5858 12.5822 14.25 12.168 14.25H6.16797Z" fill="black"/>
<path fill-rule="evenodd" clip-rule="evenodd" d="M5.16797 4C3.51111 4 2.16797 5.34315 2.16797 7V17C2.16797 18.6569 3.51111 20 5.16797 20H19.168C20.8248 20 22.168 18.6569 22.168 17V7C22.168 5.34315 20.8248 4 19.168 4H5.16797ZM19.168 5.5H5.16797C4.33954 5.5 3.66797 6.17157 3.66797 7V8.25H20.668V7C20.668 6.17157 19.9964 5.5 19.168 5.5ZM3.66797 17V9.75H20.668V17C20.668 17.8284 19.9964 18.5 19.168 18.5H5.16797C4.33954 18.5 3.66797 17.8284 3.66797 17Z" fill="black"/>
</g>
</svg>
