<svg width="25" height="24" viewBox="0 0 25 24" fill="none" xmlns="http://www.w3.org/2000/svg">
<g id="cog-icon" opacity="0.4">
<path id="Oval (Stroke)" fill-rule="evenodd" clip-rule="evenodd" d="M12.168 14.5C13.5487 14.5 14.668 13.3807 14.668 12C14.668 10.6193 13.5487 9.5 12.168 9.5C10.7873 9.5 9.66797 10.6193 9.66797 12C9.66797 13.3807 10.7873 14.5 12.168 14.5ZM16.168 12C16.168 14.2091 14.3771 16 12.168 16C9.95883 16 8.16797 14.2091 8.16797 12C8.16797 9.79086 9.95883 8 12.168 8C14.3771 8 16.168 9.79086 16.168 12Z" fill="black"/>
<path id="Union (Stroke)" fill-rule="evenodd" clip-rule="evenodd" d="M11.0727 2.84189L10.6852 4.00455C10.3584 4.9849 9.64128 5.67937 8.89012 6.09762C8.82607 6.13329 8.76265 6.16997 8.69988 6.20765C7.96122 6.65109 6.99991 6.92568 5.98628 6.71826L4.78451 6.47233C4.57366 6.42918 4.35886 6.5258 4.25126 6.71218L3.63027 7.78775C3.52267 7.97413 3.5464 8.20846 3.68919 8.36949L4.50421 9.2886C5.18826 10.06 5.43322 11.0268 5.41957 11.8882C5.41839 11.9627 5.41839 12.0373 5.41957 12.1118C5.43321 12.9732 5.18825 13.9399 4.50421 14.7113L3.68919 15.6304C3.5464 15.7915 3.52267 16.0258 3.63027 16.2122L4.25126 17.2878C4.35886 17.4741 4.57366 17.5707 4.78451 17.5276L5.9862 17.2817C6.99984 17.0743 7.96116 17.3489 8.69983 17.7923C8.76261 17.83 8.82605 17.8667 8.89012 17.9024C9.64128 18.3206 10.3584 19.0151 10.6852 19.9955L11.0727 21.1581C11.1408 21.3623 11.3318 21.5 11.5471 21.5H12.789C13.0042 21.5 13.1953 21.3623 13.2634 21.1581L13.6509 19.9955C13.9777 19.0151 14.6948 18.3206 15.4459 17.9024C15.51 17.8667 15.5734 17.83 15.6362 17.7923C16.3749 17.3489 17.3362 17.0743 18.3499 17.2817L19.5515 17.5276C19.7624 17.5707 19.9771 17.4741 20.0848 17.2878L20.7057 16.2122C20.8133 16.0258 20.7896 15.7915 20.6468 15.6304L19.8319 14.7114C19.1478 13.94 18.9028 12.9732 18.9165 12.1118C18.9177 12.0373 18.9177 11.9627 18.9165 11.8882C18.9028 11.0267 19.1478 10.06 19.8319 9.28855L20.6468 8.36949C20.7896 8.20846 20.8133 7.97414 20.7057 7.78775L20.0848 6.71218C19.9772 6.5258 19.7624 6.42919 19.5515 6.47233L18.3498 6.71825C17.3362 6.92567 16.3748 6.65108 15.6362 6.20765C15.5734 6.16997 15.51 6.13329 15.4459 6.09762C14.6948 5.67937 13.9777 4.9849 13.6509 4.00455L13.2634 2.84189C13.1953 2.63771 13.0042 2.5 12.789 2.5H11.5471C11.3318 2.5 11.1408 2.63771 11.0727 2.84189ZM9.26213 3.53021C9.07989 4.07694 8.66391 4.50673 8.1604 4.78709C8.08208 4.83069 8.00455 4.87554 7.92783 4.9216C7.43314 5.21857 6.85228 5.36439 6.287 5.24871L5.08523 5.00278C4.24185 4.8302 3.38265 5.21665 2.95222 5.96218L2.33124 7.03775C1.90081 7.78328 1.99573 8.72059 2.56688 9.36469L3.38191 10.2838C3.76382 10.7145 3.92888 11.2889 3.91976 11.8644C3.91833 11.9548 3.91833 12.0452 3.91976 12.1355C3.92887 12.7111 3.76382 13.2854 3.38191 13.7161L2.56688 14.6352C1.99573 15.2793 1.90081 16.2167 2.33124 16.9622L2.95222 18.0378C3.38265 18.7833 4.24185 19.1697 5.08523 18.9971L6.28692 18.7512C6.85221 18.6356 7.43307 18.7814 7.92777 19.0784C8.00451 19.1244 8.08206 19.1693 8.1604 19.2129C8.66391 19.4933 9.07989 19.9231 9.26213 20.4698L9.64968 21.6325C9.92191 22.4491 10.6862 23 11.5471 23H12.789C13.6499 23 14.4142 22.4491 14.6864 21.6325L15.0739 20.4698C15.2562 19.9231 15.6722 19.4933 16.1757 19.2129C16.254 19.1693 16.3315 19.1244 16.4083 19.0784C16.903 18.7814 17.4838 18.6356 18.0491 18.7512L19.2508 18.9971C20.0942 19.1697 20.9534 18.7833 21.3838 18.0378L22.0048 16.9622C22.4352 16.2167 22.3403 15.2793 21.7691 14.6352L20.9542 13.7162C20.5722 13.2855 20.4072 12.7111 20.4163 12.1356C20.4177 12.0452 20.4177 11.9548 20.4163 11.8644C20.4072 11.2888 20.5722 10.7144 20.9542 10.2838L21.7691 9.36469C22.3403 8.72059 22.4352 7.78328 22.0048 7.03775L21.3838 5.96218C20.9534 5.21666 20.0942 4.8302 19.2508 5.00279L18.049 5.2487C17.4838 5.36438 16.9029 5.21857 16.4082 4.92159C16.3315 4.87554 16.254 4.83069 16.1757 4.78709C15.6722 4.50673 15.2562 4.07694 15.0739 3.53021L14.6864 2.36754C14.4142 1.55086 13.6499 1 12.789 1H11.5471C10.6862 1 9.92191 1.55086 9.64968 2.36754L9.26213 3.53021Z" fill="black"/>
</g>
</svg>
