<svg width="25" height="24" viewBox="0 0 25 24" fill="none" xmlns="http://www.w3.org/2000/svg">
<g id="folder-icon" opacity="0.4">
<path id="Union" fill-rule="evenodd" clip-rule="evenodd" d="M7.83464 5L8.37615 3.78159C8.85766 2.6982 9.93202 2 11.1176 2H13.2183C14.4039 2 15.4783 2.6982 15.9598 3.78158L16.5013 5H19.168C20.8248 5 22.168 6.34315 22.168 8V19C22.168 20.6569 20.8248 22 19.168 22H5.16797C3.51111 22 2.16797 20.6569 2.16797 19V8C2.16797 6.34315 3.51111 5 5.16797 5H7.83464ZM11.1176 3.5H13.2183C13.8111 3.5 14.3483 3.8491 14.5891 4.39079L14.8598 5H9.47611L9.74687 4.39079C9.98762 3.8491 10.5248 3.5 11.1176 3.5ZM5.16797 6.5C4.33954 6.5 3.66797 7.17157 3.66797 8V19C3.66797 19.8284 4.33954 20.5 5.16797 20.5H19.168C19.9964 20.5 20.668 19.8284 20.668 19V8C20.668 7.17157 19.9964 6.5 19.168 6.5H5.16797Z" fill="black"/>
<path id="Union_2" fill-rule="evenodd" clip-rule="evenodd" d="M14.9004 14H19.168C20.8248 14 22.168 12.6569 22.168 11V8C22.168 6.34315 20.8248 5 19.168 5H5.16797C3.51111 5 2.16797 6.34315 2.16797 8V11C2.16797 12.6569 3.51111 14 5.16797 14H9.43553C9.78134 14.5978 10.4277 15 11.168 15H13.168C13.9083 15 14.5546 14.5978 14.9004 14ZM19.168 6.5H5.16797C4.33954 6.5 3.66797 7.17157 3.66797 8V11C3.66797 11.8284 4.33954 12.5 5.16797 12.5H9.23098C9.453 11.6374 10.236 11 11.168 11H13.168C14.0999 11 14.8829 11.6374 15.105 12.5H19.168C19.9964 12.5 20.668 11.8284 20.668 11V8C20.668 7.17157 19.9964 6.5 19.168 6.5ZM11.168 12.5H13.168C13.4441 12.5 13.668 12.7239 13.668 13C13.668 13.2761 13.4441 13.5 13.168 13.5H11.168C10.8918 13.5 10.668 13.2761 10.668 13C10.668 12.7239 10.8918 12.5 11.168 12.5Z" fill="black"/>
</g>
</svg>
