<svg width="41" height="27" viewBox="0 0 41 27" fill="none" xmlns="http://www.w3.org/2000/svg">
<g id="logo-icon">
<path id="Vector" d="M27.103 0.00185596C24.7392 -0.00149434 22.4166 0.620438 20.3707 1.80456C22.4188 2.98617 24.1194 4.68656 25.3013 6.73451C26.4832 8.78246 27.1046 11.1057 27.103 13.4702H13.6384C13.6384 16.1341 14.4284 18.7382 15.9085 20.9532C17.3886 23.1681 19.4922 24.8944 21.9535 25.9137C24.4147 26.9329 27.1229 27.1994 29.7356 26.6795C32.3483 26.1595 34.7482 24.8764 36.6316 22.9924C38.515 21.1085 39.7975 18.7083 40.3167 16.0955C40.836 13.4826 40.5687 10.7745 39.5488 8.31351C38.5288 5.85256 36.802 3.74935 34.5866 2.26987C32.3713 0.790401 29.767 0.0011223 27.103 0.00185596Z" fill="#544AC3"/>
<path id="Vector_2" d="M20.3707 1.80456C22.4188 2.98617 24.1195 4.68656 25.3013 6.73451C26.4832 8.78246 27.1046 11.1057 27.103 13.4702H13.6384C13.6374 15.8341 14.2592 18.1565 15.441 20.2038C16.6229 22.251 18.3232 23.9508 20.3707 25.1321C18.3233 26.3143 16.0007 26.9366 13.6365 26.9367C11.2723 26.9367 8.94974 26.3144 6.90226 25.1323C4.85478 23.9502 3.15454 22.25 1.97242 20.2026C0.790304 18.1551 0.167969 15.8325 0.167969 13.4683C0.167969 11.1041 0.790304 8.78157 1.97242 6.73411C3.15454 4.68665 4.85478 2.98643 6.90226 1.80434C8.94974 0.62226 11.2723 -3.73469e-05 13.6365 1.68107e-09C16.0007 3.73503e-05 18.3233 0.62241 20.3707 1.80456Z" fill="#F26C6D"/>
</g>
</svg>
