<svg width="25" height="24" viewBox="0 0 25 24" fill="none" xmlns="http://www.w3.org/2000/svg">
<g id="notifications-icon" opacity="0.4">
<path id="Subtract" d="M16.168 5.5C16.4641 5.5 16.7536 5.41235 17 5.24808L19.8906 3.32101C20.2229 3.09949 20.668 3.33769 20.668 3.73704V13C20.668 13.8284 19.9964 14.5 19.168 14.5H18.168V16H19.168C20.8248 16 22.168 14.6569 22.168 13V3.73704C22.168 2.13965 20.3877 1.18686 19.0586 2.07294L16.168 4H9.16797C7.51112 4 6.16797 5.34315 6.16797 7V8H7.66797V7C7.66797 6.17157 8.33954 5.5 9.16797 5.5H16.168Z" fill="black"/>
<path id="Rectangle 192 (Stroke)" fill-rule="evenodd" clip-rule="evenodd" d="M6.23093 18.8287C6.4969 18.6159 6.82736 18.5 7.16797 18.5H15.168C15.9964 18.5 16.668 17.8284 16.668 17V11C16.668 10.1716 15.9964 9.5 15.168 9.5H5.16797C4.33954 9.5 3.66797 10.1716 3.66797 11V19.8388C3.66797 20.258 4.15293 20.4911 4.48032 20.2292L6.23093 18.8287ZM7.16797 20H15.168C16.8248 20 18.168 18.6569 18.168 17V11C18.168 9.34315 16.8248 8 15.168 8H5.16797C3.51111 8 2.16797 9.34315 2.16797 11V19.8388C2.16797 21.5158 4.10783 22.4481 5.41736 21.4005L7.16797 20Z" fill="black"/>
<path id="Vector 409 (Stroke)" fill-rule="evenodd" clip-rule="evenodd" d="M6.41797 14C6.41797 13.5858 6.75376 13.25 7.16797 13.25H13.168C13.5822 13.25 13.918 13.5858 13.918 14C13.918 14.4142 13.5822 14.75 13.168 14.75H7.16797C6.75376 14.75 6.41797 14.4142 6.41797 14Z" fill="black"/>
</g>
</svg>
