<svg width="25" height="24" viewBox="0 0 25 24" fill="none" xmlns="http://www.w3.org/2000/svg">
<g id="purse-icon" opacity="0.4">
<path id="Union" fill-rule="evenodd" clip-rule="evenodd" d="M19.918 6.35352V5C19.918 3.48122 18.6868 2.25 17.168 2.25H5.16797C3.64919 2.25 2.41797 3.48122 2.41797 5V19C2.41797 20.5188 3.64919 21.75 5.16797 21.75H19.168C20.6868 21.75 21.918 20.5188 21.918 19V9C21.918 7.74122 21.0722 6.67998 19.918 6.35352ZM3.91797 5C3.91797 4.30964 4.47761 3.75 5.16797 3.75H17.168C17.8583 3.75 18.418 4.30964 18.418 5V6.25H5.16797C4.47761 6.25 3.91797 5.69036 3.91797 5ZM3.91797 7.45015C4.293 7.64186 4.71786 7.75 5.16797 7.75H19.168C19.8583 7.75 20.418 8.30964 20.418 9V11H16.918C15.2611 11 13.918 12.3431 13.918 14C13.918 15.6569 15.2611 17 16.918 17H20.418V19C20.418 19.6904 19.8583 20.25 19.168 20.25H5.16797C4.47761 20.25 3.91797 19.6904 3.91797 19V7.45015ZM16.918 12.5H20.418V15.5H16.918C16.0895 15.5 15.418 14.8284 15.418 14C15.418 13.1716 16.0895 12.5 16.918 12.5Z" fill="black"/>
</g>
</svg>
