<svg width="25" height="24" viewBox="0 0 25 24" fill="none" xmlns="http://www.w3.org/2000/svg">
<g id="speedmeter-icon" >
<path id="Union" fill-rule="evenodd" clip-rule="evenodd" d="M16.6983 9.53033C16.9912 9.23744 16.9912 8.76256 16.6983 8.46967C16.4054 8.17678 15.9305 8.17678 15.6376 8.46967L13.5088 10.5985C13.1122 10.3765 12.6548 10.25 12.168 10.25C10.6492 10.25 9.41797 11.4812 9.41797 13C9.41797 14.5188 10.6492 15.75 12.168 15.75C13.6868 15.75 14.918 14.5188 14.918 13C14.918 12.5131 14.7914 12.0558 14.5695 11.6591L16.6983 9.53033ZM10.918 13C10.918 12.3096 11.4776 11.75 12.168 11.75C12.8583 11.75 13.418 12.3096 13.418 13C13.418 13.6904 12.8583 14.25 12.168 14.25C11.4776 14.25 10.918 13.6904 10.918 13Z" fill="black"/>
<path id="Ellipse 223 (Stroke)" fill-rule="evenodd" clip-rule="evenodd" d="M12.168 4.75C7.61162 4.75 3.91797 8.44365 3.91797 13C3.91797 15.2812 4.84288 17.345 6.33998 18.8393C6.63315 19.1319 6.63361 19.6068 6.341 19.8999C6.04839 20.1931 5.57351 20.1936 5.28034 19.9009C3.51285 18.1368 2.41797 15.6956 2.41797 13C2.41797 7.61522 6.78319 3.25 12.168 3.25C17.5527 3.25 21.918 7.61522 21.918 13C21.918 15.6922 20.8258 18.1307 19.0623 19.8943C18.7694 20.1872 18.2945 20.1872 18.0016 19.8943C17.7087 19.6014 17.7087 19.1265 18.0016 18.8336C19.4954 17.3399 20.418 15.2784 20.418 13C20.418 8.44365 16.7243 4.75 12.168 4.75Z" fill="black"/>
</g>
</svg>
