<svg width="25" height="24" viewBox="0 0 25 24" fill="none" xmlns="http://www.w3.org/2000/svg">
<g id="stats-icon" opacity="0.4">
<path id="Ellipse 196 (Stroke)" fill-rule="evenodd" clip-rule="evenodd" d="M9.66797 5.65152C8.71997 5.84503 7.81357 6.22115 7.0012 6.76397C5.76783 7.58808 4.80653 8.75942 4.23888 10.1299C3.67122 11.5003 3.52269 13.0083 3.81208 14.4632C4.10147 15.918 4.81578 17.2544 5.86467 18.3033C6.91357 19.3522 8.24994 20.0665 9.70479 20.3559C11.1597 20.6453 12.6677 20.4967 14.0381 19.9291C15.4085 19.3614 16.5799 18.4001 17.404 17.1668C17.9468 16.3544 18.3229 15.448 18.5164 14.5H15.419C15.2946 14.8526 15.1261 15.1902 14.9161 15.5044C14.4208 16.2458 13.7168 16.8235 12.8931 17.1647C12.0694 17.5059 11.163 17.5952 10.2885 17.4213C9.41408 17.2473 8.61085 16.818 7.98041 16.1876C7.34997 15.5571 6.92063 14.7539 6.7467 13.8794C6.57276 13.005 6.66203 12.0986 7.00322 11.2749C7.34441 10.4512 7.9222 9.74715 8.66352 9.25181C8.97773 9.04187 9.31536 8.8734 9.66797 8.74898V5.65152ZM10.17 4.05548C10.7189 3.99424 11.168 4.4477 11.168 4.99999V8.99209C11.168 9.54438 10.7083 9.97655 10.1863 10.1568C9.94405 10.2404 9.71223 10.3551 9.49688 10.499C9.00223 10.8295 8.6167 11.2993 8.38904 11.8489C8.16138 12.3985 8.10181 13.0033 8.21787 13.5868C8.33393 14.1703 8.62041 14.7062 9.04107 15.1269C9.46173 15.5476 9.99769 15.834 10.5812 15.9501C11.1646 16.0661 11.7694 16.0066 12.319 15.7789C12.8687 15.5513 13.3384 15.1657 13.6689 14.6711C13.8128 14.4557 13.9275 14.2239 14.0112 13.9817C14.1914 13.4596 14.6236 13 15.1759 13H19.168C19.7203 13 20.1737 13.4491 20.1125 13.9979C19.9533 15.4249 19.4543 16.7982 18.6512 18.0001C17.6623 19.4802 16.2567 20.6337 14.6121 21.3149C12.9676 21.9961 11.158 22.1743 9.41216 21.8271C7.66633 21.4798 6.06268 20.6226 4.80401 19.3639C3.54534 18.1053 2.68817 16.5016 2.34091 14.7558C1.99364 13.01 2.17187 11.2004 2.85306 9.55584C3.53425 7.9113 4.6878 6.50569 6.16784 5.51676C7.36971 4.7137 8.74305 4.21469 10.17 4.05548Z" fill="black"/>
<path id="Ellipse 197 (Stroke)" fill-rule="evenodd" clip-rule="evenodd" d="M20.5164 9.49998C20.4209 9.03206 20.2807 8.5732 20.0971 8.12986C19.7202 7.21992 19.1677 6.39312 18.4713 5.69668C17.7748 5.00024 16.948 4.4478 16.0381 4.07089C15.5947 3.88725 15.1359 3.74703 14.668 3.65151V6.74897C14.7437 6.77568 14.8187 6.80444 14.8931 6.83523C15.44 7.06178 15.9369 7.39382 16.3555 7.81242C16.7741 8.23102 17.1062 8.72796 17.3327 9.27489C17.3635 9.34922 17.3923 9.42428 17.419 9.49998H20.5164ZM22.1125 10.002C22.1737 10.5509 21.7203 11 21.168 11H17.1759C16.6236 11 16.1914 10.5403 16.0112 10.0183C15.9915 9.96128 15.97 9.90479 15.9469 9.84891C15.7957 9.48398 15.5742 9.15239 15.2949 8.87308C15.0156 8.59377 14.684 8.37221 14.319 8.22105C14.2632 8.19791 14.2067 8.17648 14.1497 8.1568C13.6276 7.97655 13.168 7.54438 13.168 6.99209V2.99998C13.168 2.4477 13.617 1.99424 14.1659 2.05548C15.0052 2.14912 15.8288 2.36062 16.6121 2.68507C17.7041 3.13736 18.6962 3.8003 19.5319 4.63602C20.3677 5.47175 21.0306 6.4639 21.4829 7.55583C21.8073 8.33912 22.0188 9.16274 22.1125 10.002Z" fill="black"/>
</g>
</svg>
