<svg width="18" height="18" viewBox="0 0 18 18" fill="none" xmlns="http://www.w3.org/2000/svg">
<g id="filter-icon" opacity="0.3">
<path id="Union" fill-rule="evenodd" clip-rule="evenodd" d="M3.32501 14.75H1C0.585786 14.75 0.25 14.4142 0.25 14C0.25 13.5858 0.585786 13.25 1 13.25H3.32501C3.67247 11.5383 5.18578 10.25 7 10.25C8.81422 10.25 10.3275 11.5383 10.675 13.25H17C17.4142 13.25 17.75 13.5858 17.75 14C17.75 14.4142 17.4142 14.75 17 14.75H10.675C10.3275 16.4617 8.81422 17.75 7 17.75C5.18578 17.75 3.67247 16.4617 3.32501 14.75ZM4.75 14C4.75 12.7574 5.75736 11.75 7 11.75C8.24264 11.75 9.25 12.7574 9.25 14C9.25 15.2426 8.24264 16.25 7 16.25C5.75736 16.25 4.75 15.2426 4.75 14Z" fill="black"/>
<path id="Union_2" fill-rule="evenodd" clip-rule="evenodd" d="M7.32501 4.75H1C0.585786 4.75 0.25 4.41421 0.25 4C0.25 3.58579 0.585786 3.25 1 3.25H7.32501C7.67247 1.53832 9.18578 0.25 11 0.25C12.8142 0.25 14.3275 1.53832 14.675 3.25H17C17.4142 3.25 17.75 3.58579 17.75 4C17.75 4.41421 17.4142 4.75 17 4.75H14.675C14.3275 6.46168 12.8142 7.75 11 7.75C9.18578 7.75 7.67247 6.46168 7.32501 4.75ZM8.75 4C8.75 2.75736 9.75736 1.75 11 1.75C12.2426 1.75 13.25 2.75736 13.25 4C13.25 5.24264 12.2426 6.25 11 6.25C9.75736 6.25 8.75 5.24264 8.75 4Z" fill="black"/>
</g>
</svg>
