<svg width="20" height="19" viewBox="0 0 20 19" fill="none" xmlns="http://www.w3.org/2000/svg">
<g id="message-icon">
<path id="Rectangle 192 (Stroke)" fill-rule="evenodd" clip-rule="evenodd" d="M5.03972 14.8477C5.3093 14.623 5.6491 14.5 6 14.5H17C17.8284 14.5 18.5 13.8284 18.5 13V3C18.5 2.17157 17.8284 1.5 17 1.5H3C2.17157 1.5 1.5 2.17157 1.5 3V16.7299C1.5 17.1538 1.99443 17.3854 2.32009 17.114L5.03972 14.8477ZM6 16H17C18.6569 16 20 14.6569 20 13V3C20 1.34315 18.6569 0 17 0H3C1.34315 0 0 1.34315 0 3V16.7299C0 18.4256 1.97771 19.3519 3.28037 18.2664L6 16Z" fill="#544AC3"/>
<path id="Vector 409 (Stroke)" fill-rule="evenodd" clip-rule="evenodd" d="M5.25 6C5.25 5.58579 5.58579 5.25 6 5.25H14C14.4142 5.25 14.75 5.58579 14.75 6C14.75 6.41421 14.4142 6.75 14 6.75H6C5.58579 6.75 5.25 6.41421 5.25 6Z" fill="#F26C6D"/>
<path id="Vector 410 (Stroke)" fill-rule="evenodd" clip-rule="evenodd" d="M5.25 10C5.25 9.58579 5.58579 9.25 6 9.25H10C10.4142 9.25 10.75 9.58579 10.75 10C10.75 10.4142 10.4142 10.75 10 10.75H6C5.58579 10.75 5.25 10.4142 5.25 10Z" fill="#F26C6D"/>
</g>
</svg>
