<svg width="21" height="24" viewBox="0 0 21 24" fill="none" xmlns="http://www.w3.org/2000/svg">
<g id="notifications-icon">
<path id="Union" fill-rule="evenodd" clip-rule="evenodd" d="M14 20H18.5858C19.3668 20 20 19.3668 20 18.5858C20 18.2107 19.851 17.851 19.5858 17.5858L18.5858 16.5858C18.2107 16.2107 18 15.702 18 15.1716L18 11.9707C18 7.56859 14.4314 4 10.0293 4C5.61789 4 2.04543 7.58319 2.05867 11.9946L2.06814 15.1476C2.06977 15.6922 1.84928 16.2139 1.45759 16.5922L0.428635 17.586C0.154705 17.8506 2.07459e-06 18.2151 0 18.5959C0 19.3714 0.628628 20 1.40408 20H6C6 22.2091 7.79086 24 10 24C12.2091 24 14 22.2091 14 20ZM17.5251 17.6464L18.3787 18.5H1.64147L2.49967 17.6711C3.18513 17.009 3.57099 16.0961 3.56813 15.1431L3.55867 11.9901C3.54792 8.40887 6.44807 5.5 10.0293 5.5C13.603 5.5 16.5 8.39702 16.5 11.9707L16.5 15.1716C16.5 16.0998 16.8687 16.9901 17.5251 17.6464ZM12.5 20H7.5C7.5 21.3807 8.61929 22.5 10 22.5C11.3807 22.5 12.5 21.3807 12.5 20Z" fill="#544AC3"/>
<circle id="Ellipse 1" cx="16" cy="5" r="4" fill="#F26C6D" stroke="#544AC3" stroke-width="2"/>
</g>
</svg>
